@startuml
class users {
    <b>user_id</b> （用户ID）
    username （用户账号）
    password （用户密码）

}
class teachers{
    <b>teacher_id</b> （老师ID）
    <b>user_id</b> （老师用户ID）
    term（学期）
    subject（课程）
}
class students{
    <b>student_id</b> （学号）
    <b>user_id</b> （学生用户ID）
    score（成绩）
    term（学期）
    subject（学科）
}
users <|- students
users <|-- teachers

class term{
    <b>term_id</b> （学期号）
    term_date（学期日期）
}
class subject{
    <b>subject_id</b> （学科编号）
    subject_name（学科名称）
}
class grades {
    <b>student_id</b> （学号）
    <b>test_id</b> （实验编号）
    eachScore（每项得分）
    result （总分数）
    memo （评价）
    update_date （评改日期）
}

class tests {
    <b>test_id</b> （实验编号）
       title (实验名称)
    <b>term_id</b> （学期编号）


}
students "n" -- "n"term
teachers "n" -- "n" term
students "n" -- "n" subject
teachers "n" -- "n" subject
students "n" -- "n" grades
term "n" -- "n" subject
subject "1" -- "n" grades
grades "n" -- "1" tests
term "n" -- "n" tests
@enduml